<?xml version="1.0" encoding="UTF-8"?>
<svg id="_圖層_1" data-name="圖層 1" xmlns="http://www.w3.org/2000/svg" viewBox="0 0 246.81 87.22">
  <defs>
    <style>
      .cls-1 {
        fill: #00693e;
      }

      .cls-2 {
        fill: #fff;
      }

      .cls-3 {
        fill: #00a040;
      }

      .cls-4 {
        fill: #e4007f;
      }

      .cls-5 {
        fill: #fcc80e;
      }

      .cls-6 {
        fill: #c8161d;
      }

      .cls-7 {
        fill: #00b9ef;
      }

      .cls-8 {
        fill: #1d2088;
      }

      .cls-9 {
        fill: #231815;
      }

      .cls-10 {
        fill: #007440;
      }
    </style>
  </defs>
  <g>
    <polygon class="cls-2" points="87.22 16.8 87.07 16.64 87.07 16.64 87.22 16.8"/>
    <path class="cls-7" d="m33.88,33.88c6.46,1.02,13.04,1.01,19.49-.03,1.98-12.34,7.72-24.2,17.21-33.69l16.48,16.48h0L70.43,0c-14.78,14.78-38.79,14.83-53.63.16h0c9.45,9.52,15.14,21.38,17.09,33.72Z"/>
    <path class="cls-5" d="m33.85,53.37c-1.98,12.34-7.72,24.2-17.21,33.69l.16.16c14.83-14.83,38.96-14.83,53.79,0-9.54-9.54-15.29-21.47-17.24-33.88-6.46-1.02-13.04-1.01-19.49.03Z"/>
    <path class="cls-3" d="m53.37,33.85c-1.04,6.45-1.05,13.04-.03,19.49,12.41,1.95,24.34,7.7,33.88,17.24-14.83-14.83-14.83-38.96,0-53.79l-.16-.16c-9.5,9.5-21.35,15.23-33.69,17.21Z"/>
    <path class="cls-1" d="m70.59.16c-9.5,9.5-15.23,21.35-17.21,33.69,12.34-1.98,24.2-7.72,33.69-17.21L70.59.16Z"/>
    <path class="cls-10" d="m53.34,53.34c1.95,12.41,7.7,24.34,17.24,33.88l16.64-16.64c-9.54-9.54-21.47-15.29-33.88-17.24Z"/>
    <path class="cls-4" d="m33.88,33.88C21.54,31.94,9.68,26.24.16,16.79h0c14.67,14.85,14.62,38.86-.16,53.64l.16.16c9.5-9.5,21.35-15.23,33.69-17.21,1.04-6.45,1.05-13.04.03-19.49Z"/>
    <path class="cls-8" d="m.16,16.79c9.52,9.45,21.38,15.14,33.72,17.09C31.94,21.54,26.24,9.68,16.79.16L.16,16.79Z"/>
    <path class="cls-6" d="m.16,70.59l16.48,16.48c9.5-9.5,15.23-21.35,17.21-33.69-12.34,1.98-24.2,7.72-33.69,17.21Z"/>
  </g>
  <g>
    <path class="cls-9" d="m109.43,40.03s7.27,2.38,11.11,2.38c5.09,0,7.54-.4,7.54-4.1s-1.46-3.7-9.59-6.94c-7.08-3.31-10.84-5.88-10.84-13.16,0-8.66,6.61-12.43,14.88-12.43,3.11,0,8.73.79,13.09,2.31l-1.52,7.4c-4.1-1.32-8.07-1.98-10.45-1.98-4.76,0-6.54.59-6.54,4.23,0,4.36,3.17,4.63,8.59,6.88,5.82,2.45,12.23,4.96,12.23,13.29,0,10.58-9.06,12.3-16.99,12.3-7.34,0-13.49-3.17-13.49-3.17l1.98-7.01Z"/>
    <path class="cls-9" d="m175.28,20.2c0,13.95-9.19,14.15-19.31,14.15h-2.38v15.01h-8.73V6.51h14.02c8.93,0,16.4,1.59,16.4,13.69Zm-21.69,6.55h6.41c4.17,0,6.41-.59,6.41-6.55,0-5.36-2.91-6.08-8.26-6.08h-4.56v12.63Z"/>
    <path class="cls-9" d="m181.1,49.35V6.51h26.31l-.86,7.6h-16.73v9.46h15.01v7.27h-15.08v10.91h18.12v7.6h-26.78Z"/>
    <path class="cls-9" d="m245.56,8.03l-1.72,6.68c-3.57-.79-7.41-1.39-9.65-1.39-6.28,0-11.83,1.45-11.83,14.48,0,12.3,5.29,14.61,9.85,14.61,7.54,0,12.3-2.18,12.3-2.18l2.31,6.41s-4.63,3.57-14.55,3.57c-9.06,0-18.78-2.84-18.78-22.28s11.83-22.22,20.03-22.22c3.24,0,7.8.93,12.03,2.31Z"/>
  </g>
  <g>
    <path class="cls-9" d="m117.32,69.58l-1.49,2.02c-.21-.49-.64-1.28-1.3-2.37v8.73h-2.48v-7.75c-.83,1.9-1.6,3.33-2.33,4.26-.18-.6-.57-1.41-1.18-2.44,1.2-1.39,2.26-3.3,3.17-5.75h-2.9v-2.39h3.23v-2.42c-1.22.18-2.02.29-2.42.34-.07-.5-.3-1.16-.69-1.97,2.73-.39,5.04-.98,6.93-1.76l1.43,2.08c-.85.32-1.78.59-2.77.8v2.94h2.83v2.39h-2.83v.17c.29.28.78.8,1.45,1.55s1.12,1.28,1.34,1.57Zm11.63,2.5l-2.52.44v5.42h-2.52v-4.96l-6.51,1.11-.4-2.44,6.91-1.18v-12.6h2.52v12.16l2.12-.36.4,2.39Zm-6.19-4.18l-1.74,1.64c-.69-.97-1.82-2.06-3.4-3.3l1.64-1.47c1.6,1.13,2.76,2.18,3.51,3.13Zm.61-5.63l-1.78,1.58c-.29-.45-.75-.98-1.35-1.59-.61-.61-1.22-1.15-1.84-1.63l1.66-1.47c1.65,1.26,2.76,2.3,3.32,3.11Z"/>
    <path class="cls-9" d="m149.78,65.57h1.64v4.41h-2.54v-2.56h-13.82v2.56h-2.41v-4.41h1.64l-.4-6.74,1.41.27c.71-.22,1.69-.6,2.92-1.13l1.18,1.39c-.95.45-1.96.8-3.02,1.07l.02.48h2.83v1.6h-2.75l.04.73h2.77v1.05c.35-.17.85-.45,1.49-.84-.04-.03-.43-.26-1.18-.69l1.2-.97c.34.17.75.4,1.24.69.34-.31.6-.6.8-.88l1.66.48c-.35.5-.71.92-1.09,1.26.41.28.79.59,1.15.92l-1.3,1.07c-.28-.31-.64-.62-1.09-.94-.56.42-1.16.8-1.81,1.15-.36-.36-.72-.67-1.07-.92v.19h-2.69l.04.76h10.73l.06-.76h-2.56v-1.58h2.71l.04-.73h-2.69v-1.6h2.79l.04-.74h-2.92v-1.62h5.42c-.13,2.87-.29,5.21-.48,7.01Zm-3.65,2.65l1.41,1.3c-.95.77-2.19,1.6-3.72,2.48h7.54v2.02h-8.12v1.55c0,.6-.08,1.06-.23,1.36s-.45.54-.88.69c-.59.22-1.81.34-3.67.34-.11-.59-.39-1.3-.82-2.14.7.03,1.59.04,2.67.04.31-.01.46-.14.46-.38v-1.47h-8.1v-2.02h8.1v-.99h1.28c.41-.22.85-.52,1.34-.88h-6.93v-1.78h9.13l.55-.13Zm-1.79-7.71l-1.24,1.09c-.22-.22-.57-.52-1.03-.88-.74.5-1.32.86-1.72,1.07-.41-.43-.85-.82-1.34-1.16.52-.21,1.08-.5,1.68-.86-.32-.2-.71-.41-1.15-.65l1.2-.99c.34.17.75.4,1.24.69.29-.27.55-.54.76-.82l1.66.48c-.32.43-.69.83-1.09,1.2.53.39.88.67,1.05.82Z"/>
    <path class="cls-9" d="m162.02,67.12l.29,2.29c-.24.07-.57.17-1.01.29s-.73.21-.9.25v5.12c0,1.23-.3,2.01-.9,2.33-.59.35-1.66.52-3.21.52-.07-.74-.31-1.57-.71-2.5.91.04,1.57.05,1.99.02.25,0,.38-.13.38-.4v-4.41l-2.39.65-.52-2.48s1.01-.24,2.92-.67v-3.86h-2.5v-2.35h2.5v-4.03h2.46v4.03h1.64v2.35h-1.64v3.25l1.62-.42Zm13.21,7.43v2.33h-9.15v1.05h-2.46v-11.38c-.34.46-.65.85-.94,1.16-.48-.87-1.02-1.62-1.62-2.27,1.76-1.79,3.09-4.32,3.99-7.58l2.44.57c-.32,1.18-.72,2.3-1.2,3.36h2.37c.53-1.3.96-2.59,1.28-3.86l2.71.55c-.91,2.1-1.39,3.21-1.45,3.32h3.65v2.27h-3.93v1.99h3.36v2.14h-3.36v2.1h3.36v2.14h-3.36v2.12h4.3Zm-6.66-8.5v-1.99h-2.5v1.99h2.5Zm0,4.24v-2.1h-2.5v2.1h2.5Zm-2.5,2.14v2.12h2.5v-2.12h-2.5Z"/>
    <path class="cls-9" d="m196.29,71.78l1.53,1.03c-.77.55-1.7,1.11-2.79,1.7,1.06.64,2.32,1.1,3.78,1.36-.62.59-1.11,1.29-1.49,2.1-2.38-.59-4.28-1.68-5.71-3.28l.08,1.74c-.32.06-3,.46-8.02,1.22l-.34-2.33c.67-.07,1.4-.15,2.18-.25v-3.3h-2.21v-2.14h3.3v-1.47h-2.71v-2.12h2.71v-1.43h-3.15v.53c0,5.88-.87,10.17-2.6,12.87-.81-.62-1.57-1.05-2.27-1.3.94-1.47,1.55-3.18,1.85-5.14s.44-4.1.44-6.42v-6.34h16.57v5.82h-2.94v1.43h3.11v2.12h-3.11v1.47h4.05v2.14h-2.27Zm-12.83-10.83v1.51h11.38v-1.51h-11.38Zm4.41,10.83v3c1.04-.14,2.17-.3,3.4-.48-.63-.78-1.13-1.62-1.51-2.52h-1.89Zm1.07-7.16v1.43h3.21v-1.43h-3.21Zm0,3.55v1.47h3.21v-1.47h-3.21Zm6.61,3.61h-3.38c.31.5.7.99,1.18,1.47.94-.57,1.67-1.06,2.21-1.47Z"/>
    <path class="cls-9" d="m212.83,61.6h7.56v10.73h-2.69v-1.07h-4.87v6.7h-2.71v-6.7h-4.83v1.18h-2.58v-10.83h7.41v-3.72h2.71v3.72Zm-7.54,7.14h4.83v-4.62h-4.83v4.62Zm7.54,0h4.87v-4.62h-4.87v4.62Z"/>
    <path class="cls-9" d="m226.29,65.52l2.52.52c-.42,3.91-1.19,6.68-2.31,8.34l-2.39-1.37c1.13-1.67,1.86-4.16,2.18-7.5Zm3.84-1.51h2.67v10.2c0,.52.07.84.2.98.13.13.45.2.96.2h2.96c.52,0,.86-.24,1.02-.72.16-.48.28-1.58.35-3.31.6.48,1.4.85,2.39,1.11-.14,2.03-.45,3.42-.92,4.16-.48.74-1.35,1.11-2.62,1.11h-3.51c-1.36,0-2.28-.25-2.76-.75-.48-.5-.72-1.42-.72-2.78v-10.2Zm.08-4.07l1.64-2c1.23.43,2.52,1,3.86,1.71,1.34.71,2.46,1.38,3.34,2.03l-1.68,2.25c-.83-.69-1.91-1.4-3.24-2.14-1.34-.74-2.64-1.36-3.92-1.85Zm8.4,5.92l2.33-1.2c.9,1.16,1.7,2.46,2.42,3.89.71,1.44,1.21,2.72,1.49,3.85l-2.6,1.28c-.21-1.09-.65-2.37-1.33-3.84s-1.45-2.8-2.3-3.99Z"/>
  </g>
</svg>