<?xml version="1.0" encoding="utf-8"?>
<!-- Generator: Adobe Illustrator 19.2.1, SVG Export Plug-In . SVG Version: 6.00 Build 0)  -->
<svg version="1.1" id="layer" xmlns="http://www.w3.org/2000/svg" xmlns:xlink="http://www.w3.org/1999/xlink" x="0px" y="0px"
	 viewBox="0 0 652 652" style="enable-background:new 0 0 652 652;" xml:space="preserve">
<style type="text/css">
	.st0{fill:#009CDE;}
</style>
<g>
	<path class="st0" d="M80,261.2c-32.9,0-59.6,26.7-59.6,59.6c0,32.9,26.7,59.6,59.6,59.6c32.9,0,59.6-26.7,59.6-59.6
		C139.6,287.8,112.9,261.2,80,261.2 M80,375.6c-30.3,0-54.8-24.5-54.8-54.8c0-30.3,24.5-54.8,54.8-54.8c30.3,0,54.8,24.5,54.8,54.8
		C134.8,351,110.3,375.6,80,375.6"/>
	<path class="st0" d="M94.3,351.7c-12.1,0-23.3-3.3-33-9.1l3.8-10.2c2.1,1.3,4.3,2.5,6.5,3.6c4.2,2,8.9,3.1,13.9,3.1
		c17.9,0,32.5-14.5,32.5-32.5c0-14.1-8.9-26.1-21.5-30.6c-5.1-1.9-10.7-3-16.5-3c-10.7,0-20.5,3.5-28.4,9.4l6.6,8.9
		c6.1-4.5,13.6-7.2,21.8-7.2c4.6,0,9,0.9,13.1,2.4c8.1,3.1,13.8,10.8,13.8,20c0,11.8-9.6,21.4-21.4,21.4c-2.9,0-5.7-0.6-8.3-1.7
		c-2.9-1.3-5.6-2.8-8.1-4.6l12.6-33.5c-0.6,0-1.2,0-1.8,0c-3.8,0-7.4,0.7-10.8,1.8l-8.7,23.2c-1.4-1.8-2.6-3.7-3.7-5.7L50.9,319
		c1.6,2.1,3.3,4.2,5.1,6L52,335.8c-2.3-2-4.4-4.1-6.4-6.4l-5.3,10.6c2.4,2.4,4.9,4.7,7.6,6.8l-3.1,8.3c2.7,2.8,5.8,5.3,9.1,7.4
		l3.5-9.3c10.9,6.2,23.5,9.6,36.9,9.6c6,0,11.9-0.7,17.5-2l-2.6-10.8C104.4,351.1,99.4,351.7,94.3,351.7"/>
	<rect x="261.8" y="293.4" class="st0" width="28.9" height="12.4"/>
	<rect x="261.8" y="310.3" class="st0" width="28.9" height="40.5"/>
	<path class="st0" d="M238.4,329.2c7.9,0,17.7-2.6,17.7-18.9c0-16.5-10-19.2-17.9-19.2l-68.7,0v59.7h28.9v-21.4h0.4l22.9,21.4h35.9
		l-22.9-21.4L238.4,329.2 M225.4,319h-27v-14.6h27V319z"/>
	<polygon class="st0" points="505.5,310.3 488.7,325.2 488.7,293.4 459.7,293.4 459.7,350.8 488.7,350.8 488.7,335.8 505.5,350.8 
		540.8,350.8 517.9,330.5 540.8,310.3 	"/>
	<path class="st0" d="M391.8,310.3c-7.9,0-17.9,4-17.9,20.5c0,16.2,9.8,20.1,17.7,20.1l25.3,0.1l7.9-10.3h-20.3v-19.9H425v30.1h28.9
		v-40.5H391.8"/>
	<path class="st0" d="M591.5,310.3v30.3h-20.4v-30.3h-28.9l0.1,26.2c0,7.9,6.4,14.4,14.4,14.4h49.3c7.9,0,14.4-6.4,14.4-14.4
		l0.1-26.2H591.5"/>
	<path class="st0" d="M311,310.3c-7.9,0-17.9,4-17.9,20.5c0,16.2,9.8,20.1,17.7,20.1l24,0.1l7.9-10.3h-19v-19.9h19.2v36.7h-41.2
		v10.3c0,0,49.4,0,55.6,0c6.2,0,14.4-6.5,14.4-14.4l0.1-43.1H311"/>
</g>
</svg>
