<svg id="evx9kV1N7FX1" xmlns="http://www.w3.org/2000/svg" xmlns:xlink="http://www.w3.org/1999/xlink"
    viewBox="0 0 215 215" shape-rendering="geometricPrecision" text-rendering="geometricPrecision">
    <style>
            <![CDATA[

            #logo_all_TEXT {
                animation: logo_all_TEXT__ts 2000ms linear 1 normal forwards
                
            }
            @keyframes logo_all_TEXT__ts{
                0% {
                    opacity: 0
                }
                100% {
                    opacity: 1
                }
            }


            #logo_1955_text {
                animation: logo_1955_text__ts 1000ms linear 1 normal forwards
            }
            @keyframes logo_1955_text__ts{
                0% {
                    opacity: 0
                }
                100% {
                    opacity: 1
                }
            }


         #OO_33 {
          animation: OO_33__ts 1500ms linear 1 normal forwards
              }
              @keyframes OO_33__ts{
                   0% {
                      transform: translate(107.900002px, 108.200001px) skewX(1deg) skewY(0deg) scale(0.5, 0.5);
                      opacity: 0;
                  }

                  50% {
                       transform: translate(107.900002px, 108.200001px) skewX(1deg) skewY(0deg) scale(1.2, 1.2);
                        opacity: 0.4;
                  }

                  80% {
                       transform: translate(107.900002px, 108.200001px) skewX(1deg) skewY(0deg) scale(0.90, 0.90);
                       opacity: 0.6;
                  }


                  100% {
                       transform: translate(107.900002px, 108.200001px) skewX(1deg) skewY(0deg) scale(0.95, 0.95);
                       opacity: 1;
                  }
              }


              #OO_22{
                  animation: OO_22__ts 2000ms ease-in-out 1 normal forwards
              }
              @keyframes OO_22__ts{
                  0% {
                      transform: translate(107.900002px, 108.200001px) skewX(1deg) skewY(0deg) scale(0.5, 0.5);
                      opacity: 0;
                  }

                  50% {
                       transform: translate(107.900002px, 108.200001px) skewX(1deg) skewY(0deg) scale(1.2, 1.2);
                        opacity: 0.5;
                  }

                  80% {
                       transform: translate(107.900002px, 108.200001px) skewX(1deg) skewY(0deg) scale(0.95, 0.95);
                       opacity: 0.7;
                  }


                  100% {
                       transform: translate(107.900002px, 108.200001px) skewX(1deg) skewY(0deg) scale(1, 1);
                       opacity: 1;
                  }
              }


              #out_OO {
                  animation: out_OO__tr 20000ms ease-in-out infinite normal forwards
              }
              @keyframes out_OO__tr {
                  0% {
                      transform: translate(107.417845px, 108.574326px) rotate(0deg)
                  }
                  100% {
                      transform: translate(107.417845px, 108.574326px) rotate(360deg)
                  }
              }
              ]]>
    </style>

    <g id="logo_all_TEXT"  >
         <path fill="#fff100" 
            d="M149.1,43.8c2.9,2.4,5.7,4.8,8.5,7.1.3.3.9.3,1.3.3.9,0,2.3.8,2.5,1.7.1.3-.2.7-.5,1.3.4.5.8,1.1,1.4,1.7c2.5,2.5,4.3,5.4,6.3,8.2.9,1.2.5,1.8-1.6,2.4-.7-1.3-1.4-2.6-2.2-3.9-.6-.9-1.3-1.6-2-2.4-1-1.2-2.2-2.4-3.1-3.7-.7-1.1-1.2-.6-1.9.2c1,1.1,2,2.2,2.9,3.4c1.5,2,2.9,4.1,4.4,6.1.6.9.4,1.5-.5,2.1-2.3,1.5-4.7,3.1-7.1,4.7-2.1-2.9-4.2-5.7-6.3-8.5-.1.1-.3.1-.4.2.2,1.2.3,2.4.6,3.5.6,2.1,1.6,4.1,2.9,5.8.8,1.1.2,2.1-1.1,2.2-.2,0-.6-.3-.8-.5-2.1-2.8-3.5-5.9-4-9.3-.9,0-1.3,1.5-2.6.6-1.7-1.2,0-2,.2-3-2.8-.2-5-1.7-7.4-2.8-.7-.3-.6-1.1-.2-1.8.5-.8,1-.8,1.8-.4c1,.6,2,1.2,3,1.6c1.3.5,2.8.7,4.2.9-1.6-2.7-4.5-3.8-6.5-6.1.4-.7.8-1.4,1.2-2c1.1-1.7,2.1-3.4,3.3-5.1.7-1.1,1.2-1.2,2.3-.4c2.2,1.8,4.4,3.6,6.6,5.4.2.2.5.5.8.6s.7.1,1,.1c0-.4.1-.8-.1-1.1-.3-.5-.8-1-1.3-1.4-2.1-1.7-4.2-3.4-6.4-5.1-1-.8-1.1-1.3-.2-2.1.5-.1.7-.3,1-.5Zm10.3,25c-1.3-2.5-3.1-4.8-5-6.9-.3-.4-.7-.9-1.3-.4-.5.5-.5,1,0,1.5c1.5,1.8,3.1,3.7,4.5,5.6.6.8,1.1,1,1.8.2Zm-4-9.2c.7.9,1.4,1.8,2.1,2.7c1.1,1.4,2,2.9,3.2,4.3.3.3.9.3,1.4.4c0-.4.1-.8.1-1.1s-.3-.6-.5-.8c-1.4-1.8-2.8-3.6-4.3-5.4-.3-.4-.7-.7-1.1-1-.3.2-.4.4-.6.6-.1,0-.1.1-.3.3ZM153,57.1c1-.7,1.1-.9.2-1.7-1.5-1.4-3-2.8-4.6-4.1-.2-.2-1-.1-1,0-.2.4-.3,1.1-.1,1.3c1.8,1.6,3.7,3,5.5,4.5Zm-8.2-1.9c.1.1.1.3.2.3c1.6,1.5,3.3,2.9,5,4.3.2.1.8,0,.9-.2.2-.2.2-.8,0-1-1.3-1.4-2.7-2.7-4.2-3.9-.9-.8-1.1-.7-1.9.5Z" />
         <path fill="#fff100"  
            d="M122.4,38.1c1.3.2,2.5.3,3.7.7c3.1,1,6.3,1.8,9.2,3.4c1.8.9,3.6,1.7,5.4,2.6.8.4,1,1.1.5,1.8s-1,1.4-1.4,2.2c-.2.3-.2.8-.1,1.2.1,1.1-.2,1.5-1.2,1.8-1,.2-.9,1.1-.8,1.8.1,1.3-.5,2.1-1.7,2.2-.5,1-1.4,1.4-2.4,1-.7-.3-1-1-.5-1.5.7-.7.1-1.3-.3-1.5-1-.6-2.1-1-3.2-1.3-.3-.1-.9.2-1.2.5-.4.5-.9.5-1.3.2-.5-.5-1.9-.6-1-2.1-1.5-.4-2.9-.8-4.3-1.1-1.5-.3-1.7-.5-1.5-2c.1-.4.2-.8.3-1.2.3-.8.5-1.7-.7-2-.1,0-.3-.5-.2-.8.1-.4.3-.9.4-1.3c1.4.2,1.4.1,1.7-1.3.1-1.1.3-2.2.6-3.3Zm7.3,5.1c0,0-.1-.5-.4-.6-1.4-.5-2.9-1-4.3-1.4-.2,0-.7.5-.8.8-.1.4,0,1.2.3,1.3c1.3.5,2.7.8,4,1.2.9.4,1.2-.1,1.2-1.3Zm3,.6c-.7,1.9-.5,2.2,1.1,2.9.5.2.9.5,1.3.7s.8.5,1.1.4c.4-.2.8-.6,1.1-1c.1-.2,0-.8-.2-.9-1.4-.8-2.9-1.4-4.4-2.1Zm-4.7,5c.2-.7.4-1.2.6-1.8-1.6-.4-3.1-.8-4.6-1.1-.2,0-.6.3-.7.5-.1.3-.1.7-.1,1.2.9.2,1.6.5,2.4.7.7.1,1.5.3,2.4.5Zm7.5,1.5c-.6-.4-1.2-.9-1.9-1.2s-1.5-.4-2.2-.4c-.2,0-.4.9-.5,1.2.8.5,1.5.9,2.1,1.3c1.6.7,1.7.6,2.5-.9Z" />
         <path fill="#fff100"  
            d="M84.7,52.3c1.6-.8,3.2-1.4,4.5-2.4c1.4-1,2.6-2.3,3.8-3.6c1.1-1.2,1.3-2.8,1.1-4.5-.1-.7,0-1.3-.1-2-.1-1.4-.4-1.8-1.7-1.5-1.8.4-3.5.9-5.3,1.5-2.1.6-4.2,1.3-6.5,2-.3-.7-.5-1.4-.9-2.2c1.3-.5,2.6-1.1,3.9-1.5c2.9-.9,5.8-1.7,8.7-2.5.3-.1.6-.6.6-.9c0-.8-.1-1.5-.2-2.4c1-.2,1.9-.4,2.9-.7.1,1.2.3,2.2.4,3.2.9-.1,1.6-.3,2.4-.4c3.4-.3,6.8-.6,10.3-1c.8-.1,1.3.2,1.2,1.1-.1.8.3,1.7-1.2,1.7-2.2,0-4.4.1-6.6.2-1.6.1-3.1.4-4.7.7-.2,0-.6.6-.5.8.3,1.4.5,2.8,1.1,4.1c1.4,3,4,4.6,7.1,5.3c1.2.3,2.5.1,3.7,0c.8-.1,1.1,0,1.1.9c0,1.8-.2,2.1-2.1,2.1-3.6,0-6.8-1.1-9.7-3.2-1.4-1-1.4-.9-2.5.4-1.1,1.4-2.2,2.8-3.6,3.9-1.9,1.3-3.7,2.8-6.1,3.3-.7.2-.9-.2-1-.7c0-.6,0-1.2-.1-1.7Z" />
         <path fill="#3853a3"  
            d="M114,176.8c-.1-1.6-.3-3.3-.4-4.9-.1-1.3-.3-2.6-.4-4c0-.9.8-1.7,1.6-1.6.9.1,1.2.8,1.2,1.6.2,2.6.4,5.1.7,7.7.2,2.6.5,5.1.7,7.7.1.7.1,1.4-.9,1.6-.9.2-1.8.2-2.3-.7-1.1-2.1-2.2-4.2-3.4-6.3-.4-.8-.9-1.6-1.4-2.4-.1,0-.2.1-.3.1c0,.3,0,.6,0,.9-.1,2.5-.2,5.1-.2,7.6c0,1.1-.9,1-1.6,1.1-.6.1-1.4-.8-1.4-1.6.2-3.6.5-7.1.7-10.7.1-1.7-.1-3.5,0-5.2c0-.5.6-1.1,1-1.4.3-.1,1.1.3,1.3.6.5.9.8,1.9,1.3,2.8c1.1,2.4,2.3,4.7,3.4,7.1.1.1.3,0,.4,0Z" />
         <path fill="#3853a3"  
            d="M47.6,136.3c1-.3,2-.6,3-1c1.3-.5,2.5-1.1,3.8-1.6.5-.2,1.4-.2,1.7.1.4.3.5,1.1.6,1.7c0,.1-.2.4-.4.4-1.2.6-2.4,1.1-3.7,1.6-2.7,1.2-5.3,2.3-8,3.4-.8.3-1.6.7-2.4,1-.8.4-1.5.1-2-.6-.6-.7-.6-1.4-.1-2c.5-.8,1.1-1.6,1.7-2.3c1.3-1.4,2.6-2.8,3.9-4.3.3-.3.4-.6.8-1.1-.4,0-.8-.1-1,0-1.9.7-3.8,1.4-5.7,2.1-1,.4-2.2.3-2.6-.3-.9-1.4-.5-2.1,1.7-2.9c3.1-1,6.3-1.9,9.5-2.9c1.1-.3,2.2-.8,3.3-1.1.5-.1,1.3,0,1.6.3.6.5.6,1.4.1,2-1.2,1.5-2.5,2.9-3.8,4.3-.7.8-1.5,1.7-2.2,2.5c0,.5.1.6.2.7Z" />
         <path fill="#3853a3"  
            d="M155.1,155.8c0,.1,0,.6-.2.8-.6,1-.1,1.4.7,1.7c1.2.6,2.4,1.2,3.6,1.8c1.1.6,1.4,2,.7,3-.5.6-1.7.5-2.7-.1-1.2-.8-2.3-1.5-3.5-2.2-.7-.4-1.2-.4-1.7.2-1.4,1.4-1.4,1.4-.2,3c.8,1.1,1.5,2.3,2.3,3.5.6.9-.1,1.4-.7,1.8s-1.4.5-1.9-.3c-2.9-4.1-5.9-8.2-8.8-12.4-.8-1.2-.7-1.9.5-2.9c1.1-1,2.2-2.1,3.3-3.1c1.2-1.1,2.7-1.2,4-.8c2.8.9,4.4,2.8,4.6,6Zm-9.2-.2c.7,1,1.2,1.9,1.8,2.8.7,1,1.1,1,2.1.4c1.6-1,2.1-2.4,1.8-4.2-.3-1.4-2.1-2.3-3.1-1.5-.9.8-1.7,1.7-2.6,2.5Z" />
         <path fill="#fff100"  
            d="M77.1,55.6c.4-.3.7-.5.9-.7.6-.4,1-.4,1.4.3.4.6.4,1.1-.4,1.4s-.8.9-.4,1.5.7,1.3,1.1,1.9c-1.7,1.2-3.5,2.2-4.9,3.5-2.8,2.5-5.4,5-8,7.7-.5.5-1,.8-1.4.4-.3-.3-.3-1-.2-1.4s.5-.7.8-1.1c2.7-3,5.6-5.7,8.8-8c.5-.3,1-.7,1.3-1.1.2-.3,0-.7,0-1.1-.3,0-.7-.1-.9.1-3.6,2.9-7.5,5.5-10.3,9.3-.8,1-1.7,2-2.5,3-.5.6-1.1.8-1.7.4-.6-.5-.4-1.1.1-1.7c4-4.5,7.9-9,13-12.3.3-.2.3-.8.4-1.2-.4,0-1-.2-1.2,0-2.2,1.6-4.4,3.3-6.4,5.1-1.6,1.5-3,3.2-4.5,4.8-.2.2-.8.3-.9.1-.3-.3-.6-.8-.6-1.2c0-.3.4-.7.6-1c3.7-3.9,7.6-7.4,12-10.4c1.7-1.2,1.8-1.1,2.9.7.5.2.8.6,1,1Z" />
         <path fill="#3853a3"  
            d="M101.1,170.9c.2-1.3.3-2.6.5-3.9.2-.9.8-1.4,1.9-1.1.9.2,1,1.1,1,1.9s-.3,1.5-.3,2.3c-.3,3.2-.6,6.4-.9,9.5-.1,1-.2,2.1-.5,3.1-.5,1.4-1.8,2-3.1,2.2-2.3.5-4.4-.2-6.1-1.8-.9-.9-1.2-2-.9-3.3.6-2.8,1.1-5.6,1.7-8.5.3-1.6.6-3.2,1-4.7.2-.9,1-1.4,1.9-1.1.7.3,1.1.9.9,1.7-.6,3.1-1.1,6.3-1.7,9.4-.2,1-.3,1.9-.4,2.9-.2,1,.6,1.9,1.7,2.1c1.6.2,2.2-.1,2.3-1.4.2-1.7.3-3.4.5-5.1.2-1.4.5-2.8.8-4.2-.2.1-.3.1-.3,0Z" />
         <path fill="#3853a3"  
            d="M33.8,121.7c-.1-1.5.7-2.7,1.5-3.9s2.2-1.1,3.4-1.3c3.5-.8,7-1.4,10.5-2.1.8-.1,1.5.1,1.8,1c.3.8-.2,1.7-1,1.9-2,.5-4,.8-6,1.2-1.9.4-3.8.8-5.6,1.2-.9.2-1.2,1-1.3,1.8-.1,1,.1,2.1,1.2,2.3.9.2,1.9-.1,2.8-.2.8-.1,1.5-.4,2.3-.6c2.5-.6,5.1-1.2,7.6-1.8.9-.2,1.3.1,1.4,1c.1,1.6-.3,2-2.1,2.3-1.5.3-3.1.7-4.6,1-1.6.4-3.3.7-4.9,1-.5.1-1.1.4-1.6.4-3.4.3-5.4-1.8-5.4-5.2Z" />
         <path fill="#3853a3"  
            d="M57.7,166.1c-.3-.4-.6-.7-.8-1.1-.3-.6-.3-1.2.2-1.7c1.1-1.2,2.2-2.4,3.3-3.5.6-.6.6-.9-.1-1.3-.8-.6-1.6-1.3-2.4-1.9-.2-.2-.8-.1-1.1,0-.9.6-1.7,1.4-2.5,2.1-1,.8-2,.8-2.7.1-.6-.6-.3-1.5.7-2.5c1.8-1.6,3.5-3.1,5.3-4.6c1.6-1.4,3.3-2.8,4.9-4.2.7-.6,1.3-.9,2.2-.3.8.5.7,1.2.4,1.8-.3.5-.8.9-1.2,1.3-1.2,1.1-2.4,2.2-3.6,3.3-.6.5-.5,1,.1,1.4.8.6,1.6,1.5,2.4,1.5.6,0,1.3-1.2,1.9-1.8.9-.9,1.8-1.8,2.7-2.7.6-.6,1.3-.7,2-.1s.4,1.3-.1,1.9c-2.6,3-5.2,5.9-7.8,8.9-.8,1-1.7,1.9-2.6,2.8-.2.1-.6.2-1.2.6Z" />
         <path fill="#3853a3"  
            d="M158.5,146.7c1.1-.3,2.3-.6,3.4-1c1.9-.7,3.7-.1,5.2.8.7.4,1.2,1.5,1.4,2.3.7,3.3.1,6.4-3.3,8-1.4.7-3,.9-4.4-.1-.4-.3-.6-1-.7-1.6s.4-.9,1-1c.7-.1,1.4-.2,2.1-.3c1.2-.2,2.8-1.6,2.8-2.6.1-1.8-1.1-2.8-2.8-2.5-1.5.3-2.9.8-4.3,1.1-1.8.5-4.8-.1-5.8-2.6-1.1-2.6-.6-5.3,1.5-6.5c1.2-.7,2.6-1.2,4.2-.7.8.2,1.1.7,1,1.5-.1.7-.4,1.2-1.2,1.2-.5,0-1.1.1-1.6.3-.9.2-1.4.8-1.3,1.8.1.9.9,1.6,1.8,1.7.3,0,.6,0,.9,0c0,.1,0,.2.1.2Z" />
         <path fill="#3853a3"  
            d="M69.5,171.7c-.2-.3-.3-.6-.6-.8-1.4-1-2.7-1.9-4.1-2.8-.2-.1-.6,0-.8.1-.4.2-.8.5-1.2.8-.7.6-1.2.3-1.8-.2s-.8-1.3-.2-1.8c1.3-1.1,2.8-2.1,4.2-3.2.2-.2.4-.3.7-.5c2.6-2,5.2-4.1,7.8-6c.5-.3,1.3-.5,1.8-.3.7.3,1,1,.8,1.9-.5,1.6-.9,3.2-1.4,4.9-.9,3.3-1.8,6.6-2.7,9.9-.3.9-1.1,1.4-1.9,1.2-1.1-.3-1.4-1-1-2.1.1-.3.2-.7.4-1.1Zm-2.3-6.1c.9.7,1.7,1.2,2.4,1.7.6.4,1,.3,1.2-.4.3-1,.5-1.9.8-2.9.2-.6.4-1.2.6-1.8-.1,0-.2-.1-.3-.1-1.5,1.1-3,2.2-4.7,3.5Z" />
         <path fill="#3853a3"  
            d="M58,145.3c.4-2.6-2.2-3.2-4-2.6-2.5.8-4.4,2.5-6.1,4.5-.4.5-.5,1.7-.2,2.3.3.7,1.2,1.4,2,1.8.8.3,1.3-.4.9-1.3-.1-.3-.2-.5-.4-.8-.4-.7-.5-1.5.3-1.9.7-.3,1.6-.7,2.2.3s1.2,1.9,1.7,2.9c.2.3.1.9-.1,1.2-1.1,1.3-2.6,2.2-4.2,2.4-1.8.3-4.2-1.4-5-3.1-1-2.2-.6-4.1.8-5.9c1.8-2.3,3.9-3.9,6.6-4.9.9-.3,1.7-.7,2.6-.9c2.7-.6,5.9,1.9,6,4.6c0,.9-.5,2-1,2.8-.2.3-1.1.5-1.6.4-.3,0-.4-.8-.6-1.2.1-.1.1-.4.1-.6Z" />
         <path fill="#3853a3"  
            d="M143,171.8c1.3-.7,2.4-1.4,3.5-2.1c1.1-.6,2-.4,2.4.8.2.4.1,1.2-.2,1.4-1.8,1.2-3.7,2.4-5.7,3.5-.7.4-1.6.1-2-.7-1.2-2.3-2.3-4.7-3.4-7-.7-1.5-1.4-3.1-2.3-4.6-.9-1.6-1.1-2.6-.1-3.4.6-.5,1.4-.9,2.1-1.3.5-.3,1-.5,1.4-.8.6-.4,1.2-1,2-.2.6.7.6,2-.1,2.6-.5.5-1.1.8-1.7,1.2s-.8.8-.4,1.4.6,1.3.9,2c.3.6.6.6,1.2.3.8-.5,1.7-1,2.6-1.5.7-.4,1.2,0,1.6.6s.6,1.3-.1,1.8c-.8.6-1.8,1.2-2.5,1.9-.3.3-.6.9-.5,1.3c0,.5.4.9.7,1.4c0,.2.2.7.6,1.4Z" />
         <path fill="#3853a3"  
            d="M40.9,106.1c1.9,0,3.8,0,5.6,0c.8,0,1-.3,1-1s0-1.5,0-2.2c.1-1.3,1.1-2.1,2.2-1.6.3.1.8.6.8.9.1,3.3.2,6.5.2,9.8c0,1.7-1.2,2.4-2.6,1.4-.4-.3-.6-.9-.6-1.4-.1-2.3-.1-2.3-2.3-2.3-2.4,0-4.9,0-7.3,0-1.2,0-2.4.1-3.5-.1-.5-.1-1.2-.5-1.3-.9-.2-.7-.4-1.6.5-2.1.5-.2,1.1-.5,1.7-.5c1.8,0,3.7,0,5.6,0Z" />
         <path fill="#3853a3"  
            d="M130.8,174.3c0-.7.1-1.1.1-1.4c0-3.1,0-6.2,0-9.3c0-.3-.1-.7,0-.8.4-.4.9-.8,1.4-1c.2-.1.6.6.9,1c.1.1,0,.2,0,.3.1,2.8.2,5.6.2,8.5.1,2.4.2,4.8.2,7.2c0,.6-.4,1.3-.8,1.7-1.2,1.1-2.4.4-3.2-1.4-1.3-3-2.9-5.9-4.3-8.9-.7-1.5-1.4-3-2-4.5-.1-.4.2-1.2.5-1.4.5-.2,1.2-.1,1.7.1.3.1.5.5.6.8.9,2.1,1.8,4.2,2.8,6.3.5.8,1.2,1.7,1.9,2.8Z" />
         <path fill="#3853a3"  
            d="M164.1,127c-.2.8-.3,1.4-.4,2-.1.4-.1.8-.3,1.1-.5,1.3-1.2,1.7-2.1,1.3-.8-.3-1.1-1.2-.8-2.3.7-2.5,1.4-5.1,2.1-7.6.1-.3.1-.6.2-.9.2-1,1-1.5,2-1.4c1.1.1,1,1,.9,1.7-.1.9-.4,1.8-.6,2.8.7.3,1.4.5,2.1.8c2.6.9,5.2,1.8,7.8,2.7.9.3,1.9.5,2.8.9c1.1.5,1.5,1.3,1.2,2.1s-1.3,1.2-2.3.9c-2-.6-3.9-1.3-5.9-1.9-2.1-.7-4.3-1.4-6.7-2.2Z" />
         <path fill="#3853a3"  
            d="M168.8,111.5c-.8-.7-1.5-1.2-2.1-1.7-.6-.4-1.3-.7-1.9-1.1-.7-.5-.8-1.6-.4-2.2.6-.7,1.2-.7,2-.2c1.3.9,2.7,1.6,4,2.6c1.1.8,2.4,1.1,3.7,1.3c2.3.2,4.6.6,6.9.9.9.1,1.4,1.2.9,2.2-.2.4-1,.7-1.5.7-3-.1-5.9-.4-8.9-.3-1,0-2,.8-3,1.3-.7.3-1.4.7-2,1.1-1,.6-2.1.6-2.5-.2-.4-.7.1-2,1-2.4c1.1-.7,2.3-1.3,3.8-2Z" />
         <path fill="#fff100"  
            d="M79.4,51.5c-1.1.4-1.8.5-2.5-.2-.2-.2-.6-.3-.9-.2-.7.3-1.5.7-2.1,1.1-1.2.8-2.5,1.6-3.7,2.5-4.1,3.1-8,6.3-11.1,10.5-.6.9-1.3,1.7,0,2.7.2.1.1.9-.1,1.1-.3.3-1,.7-1.3.5-.7-.4-1.4-1-2-1.5-.6-.6-.7-1.4,0-2.1c1.1-1.3,2.3-2.6,3.4-3.9c4.5-5.2,9.9-9.5,15.8-13c.5-.3,1.1-.6,1.6-.9.8-.5,1.3-.5,1.6.6.3,1,.8,1.8,1.3,2.8Z" />
         <path fill="#fff100"  
            d="M123.4,31.6c.4,0,.9.1,1.3.1.8,0,1.4.2,1.4,1.3c0,.3.6.9,1,1c2.1.7,4.3,1.2,6.5,2c2,.7,4,1.7,6,2.6c1.3.6,2.6,1.2,3.9,1.9.4.2,1,.7,1,.9-.2.7-.7,1.3-1.1,2c0,.1-.4,0-.5-.1-5.5-3.4-11.5-5.4-17.6-7.3-.2-.1-.4-.1-.6-.1-1.4-.1-1.7-.4-1.6-2c0-.7.2-1.5.3-2.3Z" />
         <path fill="#fff100"  
            d="M59.6,56.8c.4-.5.7-.9,1.2-1.6-1.4-.2-2.5-.4-3.6.1-.6.3-1.2.3-1.5-.3-.2-.3-.1-1,.1-1.3.8-1.1,1.6-2.1,2.5-3.2-.1-.3-.2-.6-.4-.9.3-.3.6-.6.9-.9.3-.2.7-.3,1-.2.8.3,1.3,0,1.9-.4c1-.7,2.1-1.3,3.1-1.9c1.1,1.7.9,2.3-.6,2.8c0,1,0,1.9,0,3.3c1-.6,1.8-1.2,2.6-1.7c1.2.8,1.3,1.1.2,2.1-.9.8-2.2,1.3-3.2,1.9-.3.2-.7.4-.9.7-.5.6-.9,1.4-1.5,1.9-.8,1-1.3.8-1.8-.4Zm-.3-4.1c0,.1.1.2.1.3.4.1.9.2,1.3.2c1.3,0,2-1.1,1.5-2.2-.1-.2-.5-.4-.5-.3-.8.6-1.6,1.3-2.4,2Z" />
         <path fill="#3853a3"  
            d="M159.3,133.4c.4.2.8.5,1.1.7s.5.5.8.7c2.2,1.2,4.4,2.3,6.6,3.5c1.7.9,3.5,1.9,5.1,2.9c1.1.7,1.3,1.5.7,2.4s-1.4,1-2.5.4c-4.3-2.4-8.6-4.9-12.9-7.3-1-.5-1-1.4-.8-2.3.3-.7,1-.9,1.9-1Z" />
         <path fill="#3853a3"   d="M167.6,91.3c0-2.5,1.8-4.4,4.3-4.3s4.1,1.6,4.1,4.6c0,2-2.2,4.2-4,4.1-2.8,0-4.4-1.7-4.4-4.4Z" />
         <path fill="#3853a3"  
            d="M75.9,178c-1.5,0-2.1-.8-1.9-1.8.2-.7.5-1.3.8-1.9.7-1.5,1.5-3.1,2.3-4.6.7-1.3,1.3-2.6,2-3.9.2-.4.4-.9.7-1.3.4-.9.8-1.9,1.3-2.8.4-.8,1.3-1,2.1-.6s1,1.1.6,2c-1.9,3.9-3.9,7.9-5.8,11.8-.4.8-.6,1.6-1.1,2.3-.2.4-.8.6-1,.8Z" />
         <path fill="#3853a3"   d="M49.1,87.4c0,2.5-1.8,4.4-4.1,4.3s-4.1-1.4-4.2-4.3c-.1-2,2.2-4.4,4.2-4.3c2.1,0,4.4,2,4.1,4.3Z" />
         <path fill="#3853a3"  
            d="M122.2,171.2c.2,1.4.4,2.8.6,4.2.4,2.1.8,4.3,1.2,6.4.2,1.1-.3,1.7-1.3,1.8-1,.2-1.5-.3-1.7-1.3-.3-1.8-.7-3.7-1-5.5-.4-2.2-.8-4.5-1.2-6.7-.2-1.1-.4-2.3-.5-3.4-.1-.7,1-1.6,1.9-1.7c1,0,1,.7,1.1,1.4.2,1.3.5,2.5.8,3.8c0,.4.1.7.1,1c0,0,0,0,0,0Z" />
         <path fill="#fff100"  
            d="M54.6,61.5c.5-.6.9-1.2,1.4-1.8.2-.2.6-.5.8-.4.4.2.7.5.9.9.1.2-.2.6-.4.8-.5.8-1.1,1.6-1.6,2.3-1,1.4-1,1.4-2.4.4-1.3-1-2.6-2-4-3-.8-.6-1-1.1-.3-1.9.9-1,1.7-2.1,2.7-3.2.4-.4,1-.9,1.5-.2.4.6.5,1.1-.2,1.7-.6.5-.9,1.2-1.2,1.9-.1.2.3.6.5,1c.3-.2.6-.3.8-.6.5-.5.9-1.1,1.5-1.6.2-.2.6,0,.9,0c0,.4.1.8-.1,1.1-.3.6-.8,1-1.1,1.6-.1.3-.1.6-.1,1c.2-.1.3-.1.4,0Z" />
         <path fill="#fff100"  
            d="M70.9,40.4c1.2,2.3,2.2,4.3,3.3,6.4.4.7.3,1.2-.4,1.5-1.2.6-2.5,1.3-3.9,2.1-.1-.7-.2-1.2-.3-1.7.8-.5,1.5-1,2.2-1.4-.3-1.5-.7-1.7-1.8-.7-.2.2-.5.4-.7.7-.4.5-1,.7-1.3.1-.2-.4-.1-1.1.2-1.4.3-.5,1.1-.6,1.4-1.1.3-.4.2-1,.2-1.5-.5.1-1,0-1.3.2-.5.3-.9.8-1.4,1.1-.3.2-.9.2-1,.1-.2-.4-.4-1.1-.2-1.3c1.4-1.5,3.1-2.5,5-3.1Z" />
         <path fill="#fff100"  
            d="M116.1,30.6c1.3.3,2.7.6,4,.9.8.2.9,1,.5,2.1-.3.7-.8.6-1.4.5-1.4-.2-2.8-.4-4.1-.5-.7,0-.9-.3-.9-.9-.1-1.8-.1-1.9,1.9-2.1Z" />
         <path fill="#fff100"  
            d="M118.4,38.9c0,.8,0,1.2-.1,1.6-.1.9-.4,1.6-1.6,1.2-.2-.1-.4,0-.6,0-2.3,0-2.6-.5-2.1-3.1c1.4.1,2.8.2,4.4.3Z" />
         <path fill="#fff100"  
            d="M115,47.7c.3,0,.4,0,.6,0c1.6,0,2.1.9,1.3,2.2-.1.2-.4.3-.7.4-.4.1-.8,0-1.2,0-1.5,0-2.1-.9-1.5-2.3.1-.2.4-.4.6-.4.4,0,.8.1.9.1Z" />
         <path fill="#3853a3"  
            d="M105.1,126.2c-11.1,0-22.2,0-33.4,0-.5-1.3-1-2.5-1.6-4c11.9,0,23.4,0,35,0c0-.1,0-.3,0-.4-.4-.1-.8-.2-1.2-.2-5.5,0-11,0-16.5,0s-10.9,0-16.4,0c-.8,0-1.2-.2-1.4-1.1-.3-1.4-.7-2.7-1.1-4.3c10.3,0,20.4,0,30.6,0c0-.1,0-.3,0-.4-.4,0-.8-.1-1.2-.1-9,0-18.1,0-27.1,0-2.6,0-2.6,0-2.8-2.6-.1-1.1,0-2.2,0-3.3c26.3,0,52.7,0,79.3,0c0,.7,0,1.5,0,2.2c0,.5-.1,1.1-.2,1.6-.3,2.2-.3,2.2-2.6,2.2-8.7,0-17.5,0-26.2,0-.4,0-.9,0-1.3.3c3.2.5,6.5.3,9.8.3s6.7,0,10,0s6.6,0,10.1,0c-.5,1.8-1,3.5-1.5,5.4-11.4,0-22.9,0-34.3,0c0,.2,0,.3,0,.5c2.2.1,4.4,0,6.6,0c2.3,0,4.5,0,6.8,0s4.5,0,6.8,0s4.5,0,6.8,0s4.5,0,7.1,0c-.6,1.4-1,2.5-1.5,3.7-.1.2-.7.2-1,.2-10.1,0-20.2,0-30.3,0-.4,0-.8,0-1.2,0c0,.1-.1.2-.1.3.2.1.3.3.5.3.3.1.6,0,1,0c9.8,0,19.6,0,29.4,0c.4,0,.8,0,1.5,0-.5,1-.9,1.9-1.5,2.6-.3.3-.9.4-1.4.4-9.4,0-18.9,0-28.3,0-.4,0-.7.1-1.1.2c0,.1,0,.3.1.4c10,0,19.9,0,30.2,0-.6.9-1.1,1.7-1.7,2.3-.3.3-.9.4-1.4.4-8.8,0-17.6,0-26.4,0-11.4,0-22.8,0-34.2,0-1.7,0-2.7-.9-3.1-2.8c10.2,0,20.4,0,30.6,0c0-.1.1-.2.1-.2-.2-.1-.3-.3-.5-.3-.3-.1-.6,0-1,0-9.6,0-19.2,0-28.8,0-.9,0-1.5-.2-1.8-1.1-.2-.6-.6-1.2-1-2c3.8,0,7.5,0,11.2,0s7.3,0,11,0c3.6,0,7.3,0,10.9,0-.3-.2-.3-.3-.3-.5Zm-3.6-10.6c0,.8,0,1.5,0,2.3c1.8,0,3.6,0,5.4,0c0,4.4,0,8.6,0,12.9.9,0,1.6,0,2.5,0c0-4.3,0-8.6,0-12.9c1.9,0,3.6,0,5.4,0c0-.8,0-1.4,0-2.2-1.8,0-3.6,0-5.5,0c0-1.5,0-2.8,0-4.1-.8,0-1.6,0-2.5,0c0,1.4,0,2.7,0,4.1-1.8-.1-3.6-.1-5.3-.1Z" />
         <path fill="#3853a3"  
            d="M144.4,92.7c-5.1,0-9.9,0-14.8,0c0,.1,0,.3,0,.4.4,0,.7.1,1.1.1c4.3,0,8.6,0,12.9,0c.8,0,1.2.2,1.4,1c.6,2.2,1.2,4.4,1.8,6.6.1.4.1.8.1,1.3-26.1,0-52.2,0-78.4,0c.3-1.4.5-2.8.9-4.2.3-1.1.8-2.1,1-3.1.2-1.3.8-1.6,2.1-1.6c4.2.1,8.4,0,12.6,0c.4,0,.8,0,1.1,0c0-.1,0-.3.1-.4-.3-.1-.7-.2-1-.2-4.2,0-8.4,0-12.7,0-.4,0-.8,0-1.4,0c.5-1.1.8-2.1,1.3-2.9c1.2-2.1,2.6-4.1,3.9-6.1.6-.9,1.4-1.3,2.5-1.3c19.2,0,38.4,0,57.7,0c1.1,0,1.8.3,2.4,1.2c2,2.7,3.8,5.7,5.4,9.2Zm-30.7,5.8c.2.2.5.4.7.5c2.3,1.6,4.9,2.2,7.5,1.3c4.6-1.6,7.6-6.7,5.2-11.7-2.3-4.8-8-6.5-12.4-3.5-1,.7-1.5.6-2.5,0-2.2-1.5-4.6-2.2-7.2-1-1.2.5-2.3,1.1-3.5,1.7-.2-.2-.6-.4-.9-.6-2.3-1.5-4.6-2-7.3-1.2-5.2,1.6-8,8.5-4.2,13.3c2.7,3.4,7.7,4.5,11.4,1.9.9-.6,1.6-.7,2.5,0c2.4,1.7,5.1,2,7.8.8c1-.5,2-1,2.9-1.5Z" />
         <path fill="#3853a3"  
            d="M137,81.6c-19.6,0-39.1,0-58.7,0c0-.1-.1-.2-.1-.3c5.9-6.6,13.3-11,22-12.6c14.5-2.6,26.8,2,36.9,12.5c0,.1,0,.3-.1.4Z" />
         <path fill="#3853a3"  
            d="M147.1,102.6c.1,2.1.2,4.2.3,6.3-26.5,0-53,0-79.6,0c.1-1,.1-2.1.2-3.1.1-1.1.2-2.1.2-3.2c26.4,0,52.6,0,78.9,0Z" />
         <path fill="#3853a3"  
            d="M76.7,133.8c20.8,0,41.3,0,61.8,0-.5,1.8-2.3,3.3-4.1,3.3-17.9,0-35.9,0-53.8,0-.9,0-1.4-.2-1.9-.9-.6-.8-1.3-1.5-2-2.4Z" />
         <path fill="#3853a3"  
            d="M135.3,137.8c-1.6,1.3-2.6,2.8-4.8,2.8-15-.1-29.9-.1-44.9,0-1.8,0-3.2-.4-4.4-1.7-.3-.3-.7-.6-1.1-1.1c18.4,0,36.7,0,55.2,0Z" />
         <path fill="#3853a3"   d="M84.3,141.2c15.7,0,31.2,0,46.6,0-1.1,1.1-2.2,2.1-3.9,2.1-12.6,0-25.2-.1-37.8,0-2,0-3.3-.8-4.9-2.1Z" />
         <path fill="#3853a3"  
            d="M88.9,144c12.5,0,25,0,37.6,0-.8.8-1.8,1.5-3,1.5-10.5,0-20.9.1-31.4,0-1.1,0-2.2-.7-3.3-1.1c0-.2.1-.3.1-.4Z" />
         <path fill="#3853a3"  
            d="M93.7,146.2c9.3,0,18.7,0,28,0-1.2.9-2.6,1.4-4.1,1.4-6.6.1-13.2.1-19.8,0-1.4,0-2.8-.6-4.2-1c0-.2,0-.3.1-.4Z" />
         <path fill="#3853a3"   d="M115.6,148c-5.2,1.2-10.4,1-15.6.3c0-.1,0-.2,0-.3c5.2,0,10.4,0,15.6,0Z" />
         <path fill="#3853a3"  
            d="M114.7,87.3c3.8-3.2,7.9-1.9,9.8.3c2.5,2.9,2.5,6.1.2,9-2.3,2.8-6.7,3.3-9.9.6c1.6-3.3,2-6.6-.1-9.9ZM125,93.1c-.5-.5-5.6-.9-7-.6-.2,0-.3.3-.6.6c2.6,0,5,0,7.6,0Z" />
         <path fill="#3853a3"  
            d="M100.7,87.3c-2,3.3-2.1,6.5,0,9.7-3.1,2.7-7.1,2.6-9.8-.2-2.5-2.7-2.6-6.3-.1-9c2.7-3,6.3-3.2,9.9-.5ZM90.4,93c2.5,0,5,0,7.6,0-.8-.7-7-.6-7.6,0Z" />
         <path fill="#3853a3"  
            d="M112.3,97.3c-3.6,2.6-7.4,1.9-9.3-.2c1.9-4.6,1.7-5.8,0-9.8c2.3-2.2,5.6-2.6,8.4-.8c1,.6,1,.9.4,2-.8,1.5-1,3.3-.6,5c.2,1.2.7,2.5,1.1,3.8Zm-2.7-4.2c-.4-.7-3.3-.8-3.9,0c1.3,0,2.6,0,3.9,0Z" />
         <path fill="#3853a3"   d="M113.7,89.1c1.1,2.1.9,4.2,0,6.3-1.3-1.2-1.3-5,0-6.3Z" />
         <path fill="#3853a3"   d="M101.8,95.3c-1.1-1.5-1.2-4.5-.1-6.1c1.2,1.1,1.2,4.6.1,6.1Z" />
    </g>



    <g id="logo_1955_text">
         <path fill="#3853a3"  
            d="M118.1,191.5c.1.8.1,1.4.2,2.1-.9.2-1.8.4-2.6.5-1.6.2-3.3.3-4.9.5-.3,0-.5.4-.7.6.2.2.5.5.7.5c1.5-.1,3.1-.2,4.6-.3.9-.1,1.9-.1,2.8-.1.2,0,.6.3.7.6.2,1,.2,2,.3,2.9s-.4,1.2-1.1,1.3c-2.8.3-5.6.6-8.4,1-1.3.1-1.8-.3-1.5-1.3.1-.4.6-.8.9-.9c2.3-.3,4.5-.5,6.8-.7.3,0,.6-.2,1-.4-1.9,0-3.6,0-5.3,0-.8,0-1.6,0-2.4.1-.9.1-1.4-.3-1.3-1.3c0-1,.1-2.1,0-3.1c0-.7.3-1,.9-1c1.1-.1,2.2-.1,3.3-.2c1.4-.2,2.9-.4,4.3-.5.5-.2,1-.2,1.7-.3Z" />
         <path fill="#3853a3"  
            d="M101.9,198.6c0-.4,0-.7,0-1-1.7-.2-3.3-.3-5-.5-.8-.1-1.6-.1-2.4-.3-.3-.1-.7-.6-.7-.9.2-1.5.5-3,.7-4.6c3,.2,5.9.4,8.7.6c1,0,1.2.6,1.2,1.4-.1,2-.2,3.9-.2,5.9c0,1.3-.1,1.5-1.5,1.4-2.7-.1-5.5-.3-8.2-.4-1.1-.1-1.5-.8-1.1-1.7.1-.2.5-.5.8-.5c2.6.2,5.1.4,7.7.6Zm.1-3.3c.1-.1.2-.2.3-.3-.2-.3-.3-.8-.5-.8-1.8-.2-3.7-.4-5.6-.5c0,.4,0,.7,0,1.2c1.9.1,3.9.2,5.8.4Z" />
         <path fill="#3853a3"  
            d="M124,194.1c2.8-.6,5.6-1.2,8.6-1.9.3,1.3.7,2.6,1,4c0,.3-.4.8-.7.9-2.7.7-5.5,1.4-8.3,2.1-.5.1-1,.1-1.7.2c0-.5-.1-.9,0-1.3.1-.3.4-.7.6-.7c2.3-.6,4.7-1,7-1.6.3-.1.6-.5.9-.7-.1-.1-.1-.2-.2-.3-.5.1-1,.2-1.5.3-2,.4-4,.8-6,1.2-.9.2-1.5,0-1.7-1-.2-1.1-.4-2.2-.5-3.2c0-.3.3-.7.6-.8c1.1-.3,2.2-.5,3.3-.8c1.7-.4,3.3-.9,5-1.3.6-.2,1.2-.2,1.4.6.1.8-.1,1.2-1,1.3-1,.1-1.9.5-2.8.8-1.1.3-2.2.5-3.3.8-1.1.1-1.1.1-.7,1.4Z" />
         <path fill="#3853a3"  
            d="M90.4,191.4c-.2,1.2-.4,2.3-.7,3.4-.3,1.2-.7,2.4-.9,3.7-.1.7-.5.7-1.1.6s-1.1-.3-.9-1.1c.4-1.7.7-3.4,1.1-5c.2-.8.4-1.5.7-2.2.1-.2.6-.5.9-.5.6,0,1.1.3.9,1.1Z" />
    </g>

    <g id="OO_33" transform="translate(107.900002,108.200001) skewX(1) skewY(0) scale(0.95, 0.95)">
        <g transform="translate(-107.900002,-108.200001)">
             <path fill="#3853a3"  
                d="M107.9,53.3C77.6,53.3,53,77.9,53,108.2s24.6,54.9,54.9,54.9s54.9-24.6,54.9-54.9-24.6-54.9-54.9-54.9Zm0,101.7c-25.9,0-46.8-21-46.8-46.8c0-25.9,21-46.8,46.8-46.8c25.9,0,46.8,21,46.8,46.8s-20.9,46.8-46.8,46.8Z" />
        </g>
    </g>

    <g id="OO_22" transform="translate(107.900002,108.200001) scale(1,1)">
        <g transform="translate(-107.900002,-108.200001)">
             <path fill="#3853a3"  
                d="M107.9,26.3C62.7,26.3,26,63,26,108.2s36.7,81.9,81.9,81.9s81.9-36.7,81.9-81.9-36.7-81.9-81.9-81.9Zm0,160.9c-43.6,0-79-35.4-79-79s35.4-79,79-79s79,35.4,79,79-35.4,79-79,79Z" />
        </g>
    </g>

    <g id="out_OO" >
        <g transform="translate(-107.417845,-108.574326)">
             <path fill="#3853a3"  
                d="M205,111c-.9-2.2-.3-4.4,1.4-6.3c1.5-1.7,3-3.3,3.7-5.6.7-2.7.5-5.3-.4-7.8-.9-2.6-2.9-4.2-5-5.8-3.6-2.8-4.2-6-2.4-10.2.9-2,1.4-4.2,1.6-6.4.2-3.3-1.7-5.9-4.5-7.6-1.5-.9-3.3-1.5-4.9-2.3-.8-.4-1.6-1-2.3-1.6-1.7-1.6-2.3-3.7-2.2-6c.1-1.9.2-3.8.2-5.7c0-2.2-1-4.1-2.6-5.7-.8-.8-1.6-1.6-2.5-2.1-1-.6-2.2-1.2-3.3-1.2-2.1-.1-4.2-.2-6.2-.9-1.7-.6-3.1-1.6-3.8-3.5-.8-2.5-1.6-5-2.5-7.5-.7-1.9-2.4-3.1-4.1-4-2.7-1.4-5.6-.7-8.5-.1-3.5.8-6.7-.1-8.1-3.6-.5-1.4-1.3-2.7-2.2-3.8-1.3-1.7-2.8-3.1-5-3.9-1.9-.7-3.8-.6-5.7-.1s-3.7,1.4-5.4,2.2c-1.8.8-3.7.5-5.4,0-2-.5-3.7-1.8-5-3.6-.7-1-1.7-1.9-2.8-2.3-1.4-.6-3-.8-4.6-1-2-.3-3.7.5-5.2,1.7-1.2,1-2.4,2-3.8,2.7s-3,1.3-4.6,1.5c-2.2.3-3.9-1.3-5.9-2.2C91.9,7.8,90.8,7,89.7,7c-1.9-.1-3.8-.4-5.7.4-2.4,1-4.5,2.2-5.7,4.6-.4.9-.9,1.8-1.6,2.5-2,1.9-4.4,2.8-7.3,2.3-1.7-.4-3.4-.9-5.1-1-2.6-.2-4.9.7-7,2.3-2.5,1.8-3.8,4.1-4.6,7-.3,1.2-.9,2.4-1.6,3.5-.8,1.3-2.3,1.7-3.6,2.1-1.1.4-2.4.3-3.4.4-2.1-.3-3.8,0-5.4.9-2.3,1.4-4.2,3.2-4.9,6-.5,2-.3,4.1-1,6.1-.9,2.8-2.8,4.2-5.5,5-1.7.5-3.4,1-4.9,2.2-2.4,2-3.7,4.4-3.7,7.4c0,2,.3,3.9.7,5.9.5,2.7-1,5.2-3.6,6.2-.9.4-1.9.6-2.7,1.2-2.5,1.9-4,4.3-4.4,7.4-.3,2.3.4,4.3,1.3,6.3.7,1.6,1.7,3,2,4.7.6,3.5-.8,6.4-3.5,8.6-1.6,1.3-2.8,2.9-3.5,4.7-1.4,3.6-.6,6.9,1.9,9.8c1.6,1.9,3.5,3.5,4.2,6.1.5,1.8.7,3.7,0,5.4-.7,1.9-1.8,3.6-2.7,5.5-1,2.2-1.2,4.6-.5,6.8s2,4.1,4.1,5.3c1.1.6,2.2,1.4,3.4,2c3.1,1.7,4.1,4.7,4.7,7.8.1.6.1,1.2-.1,1.8-.8,2.2-1.3,4.4-1,6.7.4,3,1.5,5.7,4.4,7.1c1.9.9,4,1.5,6.1,2.1c3.6,1.1,5.9,4.1,6.2,7.7.2,2.3.3,4.6,1.3,6.7.8,1.9,2,3.2,3.9,4.2c1.6.9,3.3.6,5,.8c1.5.2,3.1-.1,4.6-.2c2.2-.1,3.9.8,4.8,2.7.7,1.3,1.2,2.9,1.5,4.3.5,2.1,1.7,3.6,3.2,5c2.4,2.3,5.3,2.7,8.3,2c2-.5,3.9-1.4,5.9-1.9c1.9-.5,3.9-.2,5.2,1.4.9,1,1.7,2.3,2.3,3.5c1.2,2.3,3,3.9,5.4,4.7c1.8.6,3.6.7,5.4.2c2.5-.7,4.7-2.1,6.6-4c1.7-1.8,5-1.8,6.8-.6c1.3.9,2.5,2.1,3.6,3.2c1.4,1.4,3.1,2.4,5,2.7c3.4.5,6.4-.7,8.9-3.1c1.2-1.1,2.2-2.5,3.5-3.5c1.1-.9,2.3-1.7,3.6-2.1c2.6-1,4.9.5,7.2,1.2c2.5.8,4.9,1.5,7.5.9c1.7-.4,3.5-1.1,4.5-2.5c1.1-1.4,1.8-3.1,2.7-4.7.7-1.2,1.3-2.4,1.9-3.6.7-1.4,3.1-2,4.5-1.8.9.2,1.8.5,2.7.6c1.6.1,3.3.4,4.8-.1c4.9-1.6,6.5-3.9,7.4-9.1.4-2.5,1.4-4.6,4.1-5.3c1.5-.4,3.1-.5,4.5-1.1c1.7-.7,3.4-1.4,4.8-2.5c3.6-2.9,4-6.9,3.2-11.1-.6-3,1-5.9,3.8-6.7.6-.1,1.1-.4,1.6-.6c5.6-1.4,8.9-9.4,6.8-14.3-.4-1-.8-2-1.1-3.1-.5-2,0-3.8,1.4-5.3.8-.9,1.7-1.8,2.7-2.6c2.4-2.1,3.8-4.6,4.4-7.8.5-2.8-.1-5.4-1.7-7.6-1.3-1.8-2.4-3.7-3.2-5.7Zm-97.1,92.2c-52.5,0-95-42.5-95-95s42.5-95,95-95s95,42.5,95,95-42.5,95-95,95Z" />
        </g>
    </g>

    <g id="ooo">
	<path fill="#fff100"  d="M119.3,83.5c-2.3,0-4.3,0.9-5.8,2.3c-1.5-1.4-3.6-2.3-5.8-2.3c-2.3,0-4.3,0.9-5.9,2.3
		c-1.5-1.4-3.6-2.3-5.9-2.3c-4.7,0-8.6,3.8-8.6,8.6c0,4.7,3.8,8.6,8.6,8.6c2.3,0,4.3-0.9,5.9-2.3c1.5,1.4,3.6,2.3,5.9,2.3
		c2.3,0,4.3-0.9,5.8-2.3c1.5,1.4,3.6,2.3,5.8,2.3c4.7,0,8.6-3.8,8.6-8.6C127.9,87.3,124.1,83.5,119.3,83.5z M112.7,92.1
		c0-1.1,0.3-2.2,0.8-3.2c0.5,0.9,0.8,2,0.8,3.2c0,1.1-0.3,2.2-0.8,3.2C113,94.3,112.7,93.3,112.7,92.1z M101,92.1
		c0-1.1,0.3-2.2,0.8-3.1c0.5,0.9,0.8,2,0.8,3.1s-0.3,2.2-0.8,3.1C101.3,94.3,101,93.2,101,92.1z M89.3,92.1c0-3.7,3-6.6,6.6-6.6
		c1.8,0,3.4,0.7,4.6,1.8c-0.9,1.4-1.4,3-1.4,4.7c0,1.8,0.5,3.4,1.5,4.8c-1.2,1.2-2.8,1.9-4.6,1.9C92.3,98.7,89.3,95.8,89.3,92.1z
		 M103,96.9c0.9-1.4,1.5-3,1.5-4.8c0-1.7-0.5-3.4-1.4-4.7c1.2-1.1,2.8-1.8,4.6-1.8c1.8,0,3.3,0.7,4.5,1.8c-0.9,1.4-1.4,3-1.4,4.8
		c0,1.8,0.6,3.5,1.5,4.9c-1.2,1.1-2.8,1.8-4.6,1.8C105.9,98.7,104.2,98,103,96.9z M119.3,98.7c-1.8,0-3.4-0.7-4.6-1.8
		c0.9-1.4,1.5-3.1,1.5-4.9c0-1.8-0.5-3.4-1.4-4.8c1.2-1.1,2.8-1.8,4.5-1.8c3.7,0,6.6,3,6.6,6.6C126,95.8,123,98.7,119.3,98.7z"/>
	<polygon fill="#fff100" points="114.8,115.6 109.3,115.6 109.3,111.6 107,111.6 107,115.6 101.5,115.6 101.5,117.9 107,117.9 
		107,130.8 109.3,130.8 109.3,117.9 114.8,117.9 	"/>
</g>
</svg>
